<?xml version="1.0" encoding="UTF-8"?>
<svg width="101px" height="56px" viewBox="0 0 101 56" version="1.1" xmlns="http://www.w3.org/2000/svg" xmlns:xlink="http://www.w3.org/1999/xlink">
    <!-- Generator: Sketch 64 (93537) - https://sketch.com -->
    <title>wf_final2</title>
    <desc>Created with Sketch.</desc>
    <g id="Symbols" stroke="none" stroke-width="1" fill="none" fill-rule="evenodd">
        <g id="logo" fill="#FFFFFF">
            <g id="wf_final2">
                <path d="M36.719397,54.3695276 C36.5677186,54.9998794 36.0766633,55.4926231 35.4468744,55.6465528 C34.8170854,55.8004824 34.1540905,55.5894271 33.7288844,55.0997789 C31.1365628,52.1137688 26.88,47.2110955 24.4531457,44.4158794 C24.1275578,44.0407638 24.0529849,43.5094673 24.2623518,43.0592161 C24.472,42.6089648 24.9267538,42.3238995 25.4234372,42.3317789 C25.7180704,42.3362814 26.0118593,42.3407839 26.2915779,42.345005 C27.3654271,42.3618894 28.3044824,41.624603 28.5431156,40.577206 C29.9718191,34.3054874 34.7140905,13.4864322 35.8754573,8.3881809 C36.0406432,7.66327638 36.4934271,7.03658291 37.1296884,6.6521809 C39.3232563,5.32647236 44.6235578,2.12349749 47.7165025,0.25439196 C48.1124422,0.0149145729 48.6136281,0.0371457286 48.9870553,0.310110553 C49.3604824,0.583356784 49.5332663,1.05415075 49.425206,1.5041206 C47.1173869,11.1062915 39.2438995,43.8654472 36.719397,54.3695276" id="Fill-1"></path>
                <path d="M8.48329648,40.5825528 C8.33809045,41.0499698 7.93145729,41.3885025 7.44518593,41.4459095 C6.95919598,41.5033166 6.48474372,41.2691859 6.23457286,40.8484824 C4.57905528,38.0622714 1.88824121,33.5338693 0.436180905,31.0901307 C-0.120160804,30.1541709 0.185165829,28.944402 1.11887437,28.384402 C3.89973869,26.7165025 9.44430151,23.3908342 12.5577889,21.5231357 C12.9151759,21.3087035 13.367397,21.3371256 13.6952362,21.5943317 C14.022794,21.8518191 14.1578693,22.2846231 14.0343317,22.6825327 C12.6734472,27.070794 9.8759799,36.0918593 8.48329648,40.5825528" id="Fill-2"></path>
                <path d="M19.7730653,54.7775678 C19.6562814,55.2514573 19.2794774,55.617005 18.8024925,55.72 C18.3255075,55.8227136 17.8319196,55.6443015 17.5302513,55.2607437 C15.2834975,52.4013668 11.2478392,47.265407 9.06974874,44.4935477 C8.7798995,44.1249045 8.71939698,43.625407 8.91244221,43.1979497 C9.10520603,42.7704925 9.52,42.4857085 9.98826131,42.4592563 C10.3189146,42.4406834 10.6515377,42.4218291 10.9622111,42.4041005 C11.9099899,42.3503518 12.7204422,41.7039598 12.9835578,40.7919196 C14.320804,36.1557387 18.3221307,22.2834975 19.4795578,18.2703518 C19.6835779,17.5637387 20.1450854,16.9592764 20.7734673,16.5771256 C22.4638794,15.5483015 25.9786533,13.4093266 28.3329045,11.9766834 C28.7243417,11.7383317 29.2207437,11.7597186 29.5902312,12.030995 C29.9597186,12.3019899 30.1291256,12.7688442 30.0196583,13.2137487 C27.9800201,21.487397 21.7707739,46.6744523 19.7730653,54.7775678" id="Fill-3"></path>
                <path d="M57.023196,31.5631759 C57.023196,31.304 57.1264724,31.0552362 57.3096683,30.8717588 C57.4931457,30.6885628 57.7419095,30.5855678 58.0010854,30.5855678 C58.7175477,30.5855678 59.6824925,30.5855678 60.3789749,30.5855678 C60.8736884,30.5855678 61.2749749,30.9865729 61.2749749,31.4815678 C61.2749749,35.160402 61.2749749,48.9091055 61.2749749,48.9091055 C61.2749749,48.9091055 59.1784925,48.9091055 57.9298894,48.9091055 C57.4292663,48.9091055 57.023196,48.5033166 57.023196,48.0026935 C57.023196,47.8003618 57.023196,47.6447437 57.023196,47.6447437 C55.2798794,49.2752161 53.4048643,49.4358995 51.3981508,49.4358995 C48.8649246,49.4358995 46.7704121,48.5204824 45.1148945,46.6893668 C43.4717588,44.8205427 42.6503317,42.4876784 42.6503317,39.6907739 C42.6503317,36.9442412 43.4717588,34.6552764 45.1148945,32.8241608 C46.7577487,30.9930452 48.8145528,30.0776281 51.2853065,30.0776281 C53.4175276,30.0776281 55.3302513,30.1246231 57.023196,31.880603 C57.023196,31.880603 57.023196,31.745809 57.023196,31.5631759 Z M46.9772462,39.6907739 C46.9772462,41.4467538 47.4474774,42.8765829 48.3882211,43.9802613 C49.3540101,45.096603 50.5705327,45.6546332 52.0377889,45.6546332 C53.6055075,45.6546332 54.872402,45.1151759 55.838191,44.0365427 C56.8036985,42.9204824 57.286593,41.5033166 57.286593,39.7850452 C57.286593,38.0667739 56.8036985,36.649608 55.838191,35.5332663 C54.872402,34.4419698 53.6181709,33.896603 52.0754975,33.896603 C50.6206231,33.896603 49.4041005,34.4484422 48.4259296,35.5521206 C47.4601407,36.6681809 46.9772462,38.0479196 46.9772462,39.6907739 L46.9772462,39.6907739 Z" id="Fill-4"></path>
                <path d="M65.5568643,17.1399397 C65.8160402,17.1399397 66.0645226,17.2429347 66.248,17.4261307 C66.431196,17.6093266 66.534191,17.8580905 66.534191,18.1172663 C66.534191,23.462593 66.534191,48.9147337 66.534191,48.9147337 C66.534191,48.9147337 64.9478995,48.9147337 63.7175879,48.9147337 C62.9352764,48.9147337 62.3012663,48.2807236 62.3012663,47.4986935 C62.3012663,42.2118995 62.3012663,23.6697085 62.3012663,18.4918191 C62.3012663,17.7452462 62.9065729,17.1399397 63.6534271,17.1399397 C64.2722412,17.1399397 64.9915176,17.1399397 65.5568643,17.1399397" id="Fill-5"></path>
                <path d="M70.8923417,17.1399397 C71.1515176,17.1399397 71.4,17.2429347 71.5834774,17.4261307 C71.7666734,17.6093266 71.8696683,17.8580905 71.8696683,18.1172663 C71.8696683,23.462593 71.8696683,48.9147337 71.8696683,48.9147337 C71.8696683,48.9147337 70.2833769,48.9147337 69.0530653,48.9147337 C68.2707538,48.9147337 67.6367437,48.2807236 67.6367437,47.4986935 C67.6367437,42.2118995 67.6367437,23.6697085 67.6367437,18.4918191 C67.6367437,17.7452462 68.2420503,17.1399397 68.9889045,17.1399397 C69.6077186,17.1399397 70.326995,17.1399397 70.8923417,17.1399397" id="Fill-6"></path>
                <path d="M88.1622915,29.9898291 C88.2098492,30.5078995 88.2396784,31.0192161 88.2514975,31.5237789 C88.2633166,32.0283417 88.2695075,32.5396583 88.2695075,33.0577286 L88.3407035,33.0577286 C88.6021307,32.5396583 88.9350352,32.062392 89.3391357,31.6262111 C89.7432362,31.1897487 90.1948945,30.8146332 90.6941106,30.5011457 C91.1933266,30.1873769 92.2806834,29.7647035 92.2806834,29.7647035 C92.8392764,29.5874171 93.3919598,29.4987739 93.9387337,29.4987739 C96.0782714,29.4987739 97.6589347,30.1465729 98.6812864,31.4418894 C99.7033568,32.7374874 100.214392,34.585206 100.214392,36.9850452 L100.214392,48.897005 L97.8609849,48.897005 L97.8609849,38.5395377 C97.8609849,36.4123819 97.5401809,34.7827538 96.8982915,33.6509347 C96.256402,32.5191156 95.0680201,31.953206 93.3325829,31.953206 C93.2138291,31.953206 92.8809246,32.007799 92.3341508,32.1169849 C91.7876583,32.2261709 91.2110553,32.5261508 90.6049045,33.0169246 C89.9987538,33.5079799 89.4578894,34.2441407 88.982593,35.2259698 C88.5070151,36.207799 88.2695075,37.5714975 88.2695075,39.3167839 L88.2695075,48.897005 L85.9161005,48.897005 L85.9161005,34.2033367 C85.9161005,33.6849849 85.8980905,33.0307136 85.8626332,32.2396784 C85.8268945,31.4489246 85.7852462,30.6986935 85.7376884,29.9898291 L88.1622915,29.9898291" id="Fill-7"></path>
                <path d="M80.7356784,32.4442613 L76.1948945,32.4442613 L76.1948945,48.897005 L73.494794,48.897005 L73.494794,24.753407 C73.494794,22.2170854 74.0812462,20.4104523 75.2538693,19.3332261 C76.4264925,18.256 77.9812663,17.7173869 79.9173467,17.7173869 C80.2992161,17.7173869 80.6878392,17.7446834 81.0832161,17.7992764 C81.4788744,17.8535879 81.8674975,17.9219698 82.2490854,18.0035779 L81.7583116,20.4582915 C81.4310352,20.376402 81.0902513,20.3083015 80.7356784,20.2537085 C80.3811055,20.1991156 80.0265327,20.1718191 79.6719598,20.1718191 C78.9355176,20.1718191 78.3355578,20.2945126 77.8720804,20.5398995 C77.4083216,20.7855678 77.0537487,21.1331055 76.8083618,21.5830754 C76.5629749,22.0330452 76.3994774,22.5581508 76.3175879,23.1581106 C76.2356985,23.7580704 76.1948945,24.3991156 76.1948945,25.0806834 L76.1948945,29.9898291 L80.7356784,29.9898291 L80.7356784,32.4442613" id="Fill-8"></path>
                <path d="M85.0426131,26.191397 C85.0426131,26.7640603 84.8380302,27.2345729 84.4288643,27.6026533 C84.0196985,27.9707337 83.5697286,28.1547739 83.0789548,28.1547739 C82.5881809,28.1547739 82.1379296,27.9707337 81.7290452,27.6026533 C81.3198794,27.2345729 81.1152965,26.7640603 81.1152965,26.191397 C81.1152965,25.6184523 81.3198794,25.1482211 81.7290452,24.7798593 C82.1379296,24.4117789 82.5881809,24.2277387 83.0789548,24.2277387 C83.5697286,24.2277387 84.0196985,24.4117789 84.4288643,24.7798593 C84.8380302,25.1482211 85.0426131,25.6184523 85.0426131,26.191397 Z M81.7290452,48.897005 L84.4288643,48.897005 L84.4288643,29.9898291 L81.7290452,29.9898291 L81.7290452,48.897005 Z" id="Fill-9"></path>
            </g>
        </g>
    </g>
</svg>